<mxfile host="65bd71144e">
    <diagram id="diQcZERVv7FItlT5RRRl" name="Page-1">
        <mxGraphModel dx="1566" dy="1150" grid="1" gridSize="10" guides="1" tooltips="1" connect="1" arrows="1" fold="1" page="1" pageScale="1" pageWidth="827" pageHeight="1169" math="0" shadow="0">
            <root>
                <mxCell id="0"/>
                <mxCell id="1" parent="0"/>
                <mxCell id="13" value="" style="whiteSpace=wrap;html=1;" vertex="1" parent="1">
                    <mxGeometry x="10" y="30" width="800" height="1030" as="geometry"/>
                </mxCell>
                <mxCell id="8" value="" style="whiteSpace=wrap;html=1;" vertex="1" parent="1">
                    <mxGeometry x="190" y="380" width="600" height="340" as="geometry"/>
                </mxCell>
                <mxCell id="4" value="" style="whiteSpace=wrap;html=1;" vertex="1" parent="1">
                    <mxGeometry x="215" y="40" width="550" height="270" as="geometry"/>
                </mxCell>
                <mxCell id="2" value="GRO&lt;br&gt;Birth Certificate VC's&lt;br&gt;&lt;br&gt;Subject:&lt;br&gt;Parent 1:&lt;br&gt;Parent 2:" style="whiteSpace=wrap;html=1;" vertex="1" parent="1">
                    <mxGeometry x="210" y="440" width="120" height="130" as="geometry"/>
                </mxCell>
                <mxCell id="3" value="DVLA&lt;br&gt;Subject" style="whiteSpace=wrap;html=1;" vertex="1" parent="1">
                    <mxGeometry x="270" y="80" width="120" height="130" as="geometry"/>
                </mxCell>
                <mxCell id="5" value="Identities" style="text;html=1;align=center;verticalAlign=middle;resizable=0;points=[];autosize=1;strokeColor=none;fillColor=none;" vertex="1" parent="1">
                    <mxGeometry x="270" y="50" width="60" height="20" as="geometry"/>
                </mxCell>
                <mxCell id="6" value="Passport Office&lt;br&gt;Subject:" style="whiteSpace=wrap;html=1;" vertex="1" parent="1">
                    <mxGeometry x="430" y="80" width="120" height="130" as="geometry"/>
                </mxCell>
                <mxCell id="7" value="NHS Login&lt;br&gt;Subject:" style="whiteSpace=wrap;html=1;" vertex="1" parent="1">
                    <mxGeometry x="580" y="80" width="120" height="120" as="geometry"/>
                </mxCell>
                <mxCell id="9" value="&quot;Relationships&quot;" style="text;html=1;align=center;verticalAlign=middle;resizable=0;points=[];autosize=1;strokeColor=none;fillColor=none;" vertex="1" parent="1">
                    <mxGeometry x="210" y="400" width="100" height="20" as="geometry"/>
                </mxCell>
                <mxCell id="11" value="&quot;Courts&quot;&lt;br&gt;Subject:&lt;br&gt;&quot;Accessor&quot;:" style="whiteSpace=wrap;html=1;" vertex="1" parent="1">
                    <mxGeometry x="360" y="440" width="180" height="170" as="geometry"/>
                </mxCell>
                <mxCell id="12" value="Verifyable Credentials" style="text;html=1;align=center;verticalAlign=middle;resizable=0;points=[];autosize=1;strokeColor=none;fillColor=none;" vertex="1" parent="1">
                    <mxGeometry x="20" y="10" width="130" height="20" as="geometry"/>
                </mxCell>
                <mxCell id="14" value="Issuers" style="text;html=1;align=center;verticalAlign=middle;resizable=0;points=[];autosize=1;strokeColor=none;fillColor=none;" vertex="1" parent="1">
                    <mxGeometry x="20" y="40" width="50" height="20" as="geometry"/>
                </mxCell>
            </root>
        </mxGraphModel>
    </diagram>
</mxfile>